<?xml version="1.0" encoding="UTF-8" standalone="no"?> <!-- Created with Vectornator for iOS (http://vectornator.io/) --><!DOCTYPE svg PUBLIC "-//W3C//DTD SVG 1.1//EN" "http://www.w3.org/Graphics/SVG/1.1/DTD/svg11.dtd">
<svg height="100%" style="fill-rule:nonzero;clip-rule:evenodd;stroke-linecap:round;stroke-linejoin:round;" xmlns:xlink="http://www.w3.org/1999/xlink" xmlns="http://www.w3.org/2000/svg" xml:space="preserve" width="100%" xmlns:vectornator="http://vectornator.io" version="1.1" viewBox="0 0 1024 1024">
<defs>
<path d="M-0.00296158+512C-0.00296158+229.229+229.229-0.00295966+512-0.00295966C794.771-0.00295966+1024+229.229+1024+512C1024+794.771+794.771+1024+512+1024C229.229+1024-0.00296158+794.771-0.00296158+512Z" id="Mask"/>
</defs>
<g id="Layer 1" vectornator:layerName="Layer 1">
<g opacity="1" vectornator:mask="#Mask">
<use xlink:href="#Mask" fill="#ededed" stroke="none"/>
<clipPath id="ClipPath">
<use xlink:href="#Mask" fill="none" overflow="visible"/>
</clipPath>
<g clip-path="url(#ClipPath)">
<path d="M132.219+124.719C130.299+124.719+128.402+125.473+126.938+126.938C124.009+129.866+124.009+134.602+126.938+137.531L151.656+162.281C151.684+162.309+151.722+162.317+151.75+162.344C154.446+165.04+155.525+166.118+161.094+171.688C164.023+174.616+168.759+174.616+171.688+171.688C174.616+168.759+174.616+164.023+171.688+161.094C166.072+155.478+164.987+154.362+162.281+151.656L137.531+126.938C136.067+125.473+134.138+124.719+132.219+124.719ZM181.719+174.219C179.799+174.219+177.871+174.942+176.406+176.406C173.477+179.335+173.477+184.102+176.406+187.031L201.156+211.781C201.184+211.809+201.222+211.817+201.25+211.844C203.781+214.375+205.696+216.29+210.594+221.188C213.523+224.116+218.259+224.116+221.188+221.188C224.116+218.259+224.116+213.523+221.188+210.594C216.249+205.655+214.325+203.7+211.781+201.156L187.031+176.406C185.567+174.942+183.638+174.219+181.719+174.219ZM231.219+223.719C229.299+223.719+227.371+224.442+225.906+225.906C222.977+228.835+222.977+233.602+225.906+236.531L250.656+261.281C253.171+263.796+255.241+265.866+260.062+270.688C262.991+273.616+267.759+273.616+270.688+270.688C273.616+267.759+273.616+262.991+270.688+260.062C265.866+255.241+263.796+253.171+261.281+250.656L236.531+225.906C235.067+224.442+233.138+223.719+231.219+223.719ZM280.719+273.219C278.799+273.219+276.871+273.942+275.406+275.406C272.477+278.335+272.477+283.102+275.406+286.031L300.156+310.781C302.666+313.291+304.802+315.427+309.594+320.219C312.523+323.148+317.29+323.148+320.219+320.219C323.148+317.29+323.148+312.523+320.219+309.594C315.427+304.802+313.291+302.666+310.781+300.156L286.031+275.406C284.567+273.942+282.638+273.219+280.719+273.219ZM330.219+322.719C328.299+322.719+326.371+323.442+324.906+324.906C321.977+327.835+321.977+332.602+324.906+335.531L349.656+360.281C352.16+362.785+354.328+364.953+359.094+369.719C362.023+372.648+366.79+372.648+369.719+369.719C372.648+366.79+372.648+362.023+369.719+359.094C364.953+354.328+362.785+352.16+360.281+349.656L335.531+324.906C334.067+323.442+332.138+322.719+330.219+322.719ZM379.719+372.219C377.799+372.219+375.871+372.942+374.406+374.406C371.477+377.335+371.477+382.102+374.406+385.031L383.781+394.406C383.792+394.417+383.802+394.427+383.812+394.438L399.156+409.75C401.652+412.246+403.823+414.448+408.562+419.188C411.491+422.116+416.259+422.116+419.188+419.188C422.116+416.259+422.116+411.492+419.188+408.562C414.448+403.823+412.246+401.652+409.75+399.156L385.031+374.406C383.567+372.942+381.638+372.219+379.719+372.219ZM429.219+421.719C427.299+421.719+425.371+422.442+423.906+423.906C420.977+426.835+420.977+431.571+423.906+434.5L433.281+443.875C433.308+443.903+433.316+443.941+433.344+443.969L448.656+459.25C451.154+461.748+453.353+463.978+458.094+468.719C461.023+471.648+465.79+471.648+468.719+468.719C471.648+465.79+471.648+461.023+468.719+458.094C463.978+453.353+461.748+451.154+459.25+448.656L434.5+423.906C433.036+422.442+431.138+421.719+429.219+421.719ZM478.719+471.219C476.799+471.219+474.871+471.942+473.406+473.406C470.477+476.335+470.477+481.071+473.406+484L498.156+508.75C501.099+511.693+507.397+518.022+507.562+518.188C510.491+521.116+515.259+521.116+518.188+518.188C521.116+515.259+521.116+510.491+518.188+507.562C518.022+507.397+511.693+501.099+508.75+498.156L484+473.406C482.536+471.942+480.638+471.219+478.719+471.219ZM528.219+520.719C526.299+520.719+524.371+521.442+522.906+522.906C519.977+525.835+519.977+530.571+522.906+533.5L532.281+542.875C532.308+542.903+532.316+542.941+532.344+542.969L547.656+558.25C550.146+560.74+552.384+562.978+557.094+567.688C560.023+570.616+564.759+570.616+567.688+567.688C570.616+564.759+570.616+560.023+567.688+557.094C562.978+552.384+560.74+550.146+558.25+547.656L533.5+522.906C532.036+521.442+530.138+520.719+528.219+520.719ZM577.688+570.188C575.768+570.188+573.871+570.942+572.406+572.406C569.477+575.335+569.477+580.071+572.406+583L597.156+607.75C599.641+610.235+601.872+612.497+606.562+617.188C609.491+620.116+614.259+620.116+617.188+617.188C620.116+614.259+620.116+609.491+617.188+606.562C612.497+601.872+610.235+599.641+607.75+597.156L583+572.406C581.536+570.942+579.607+570.187+577.688+570.188ZM627.188+619.688C625.268+619.688+623.371+620.442+621.906+621.906C618.977+624.835+618.977+629.571+621.906+632.5L646.656+657.25C649.143+659.736+651.406+662.031+656.094+666.719C659.023+669.648+663.79+669.648+666.719+666.719C669.648+663.79+669.648+659.023+666.719+656.094C662.031+651.406+659.736+649.143+657.25+646.656L632.5+621.906C631.036+620.442+629.107+619.687+627.188+619.688ZM676.688+669.188C674.768+669.188+672.871+669.942+671.406+671.406C668.477+674.335+668.477+679.071+671.406+682L696.156+706.75C698.634+709.228+700.933+711.526+705.594+716.188C708.523+719.116+713.259+719.116+716.188+716.188C719.116+713.259+719.116+708.523+716.188+705.594C711.526+700.933+709.228+698.634+706.75+696.156L682+671.406C680.536+669.942+678.607+669.187+676.688+669.188ZM726.188+718.688C724.268+718.687+722.371+719.442+720.906+720.906C717.977+723.835+717.977+728.571+720.906+731.5L730.25+740.844C730.277+740.872+730.285+740.91+730.312+740.938L745.656+756.25C748.12+758.714+750.453+761.046+755.062+765.656C757.991+768.585+762.727+768.585+765.656+765.656C768.585+762.727+768.585+757.992+765.656+755.062C761.046+750.453+758.714+748.12+756.25+745.656L731.5+720.906C730.036+719.442+728.107+718.688+726.188+718.688ZM775.688+768.188C773.768+768.187+771.839+768.911+770.375+770.375C767.446+773.304+767.446+778.071+770.375+781L795.125+805.75C795.136+805.761+795.146+805.771+795.156+805.781C797.605+808.23+800.022+810.647+804.562+815.188C807.491+818.116+812.259+818.116+815.188+815.188C818.116+812.259+818.116+807.491+815.188+804.562C810.632+800.007+808.204+797.579+805.75+795.125L781+770.375C779.536+768.911+777.607+768.188+775.688+768.188ZM825.188+817.688C823.268+817.687+821.339+818.411+819.875+819.875C816.946+822.804+816.946+827.571+819.875+830.5L844.625+855.25C844.642+855.267+844.67+855.264+844.688+855.281C847.076+857.67+849.759+860.353+854.062+864.656C856.991+867.585+861.727+867.585+864.656+864.656C867.585+861.727+867.585+856.991+864.656+854.062C860.332+849.738+857.647+847.022+855.25+844.625L830.5+819.875C829.036+818.411+827.107+817.688+825.188+817.688ZM874.688+867.188C872.768+867.187+870.839+867.911+869.375+869.375C866.446+872.304+866.446+877.071+869.375+880L878.812+889.406C882.273+892.866+886.136+896.73+886.469+897.062C893.54+904.134+904.134+893.54+897.062+886.469L880+869.375C878.536+867.911+876.607+867.188+874.688+867.188Z" opacity="1" fill="#ff1562"/>
</g>
</g>
<path d="M228.156+558.625C168.248+558.625+119.656+607.216+119.656+667.125C119.656+727.034+168.248+775.594+228.156+775.594C288.065+775.594+336.625+727.034+336.625+667.125C336.625+607.216+288.065+558.625+228.156+558.625ZM228.156+573.625C279.781+573.625+321.625+615.501+321.625+667.125C321.625+718.749+279.781+760.594+228.156+760.594C176.532+760.594+134.656+718.75+134.656+667.125C134.656+615.501+176.532+573.625+228.156+573.625ZM196.656+566.594L184.875+575.875C184.866+575.864+189.223+581.399+190.375+582.906C193.467+586.952+196.66+591.307+200+596.062C209.066+608.971+217.926+623.069+226.219+638.312C247.275+677.015+261.647+717.379+266.406+758.062L281.312+756.312C276.307+713.524+261.28+671.388+239.375+631.125C230.795+615.353+221.66+600.792+212.281+587.438C208.821+582.51+205.491+578.012+202.281+573.812C201.084+572.246+199.954+570.794+198.812+569.344C198.174+568.532+196.631+566.561+196.656+566.594Z" opacity="1" fill="#ff1562"/>
<path d="M293.781+593.531C293.784+593.525+293.725+593.625+293.625+593.812C293.421+594.192+293.168+594.655+292.844+595.188C291.868+596.79+290.596+598.608+289.031+600.594C284.453+606.401+278.367+612.271+270.562+617.781C260.655+624.777+248.732+630.661+234.562+635.062C213.661+641.554+191.298+645.659+168.75+647.812C153.962+649.225+141.4+649.604+132.312+649.438C131.727+649.427+131.334+649.412+131.156+649.406L130.656+664.406C130.917+664.415+131.361+664.425+132.031+664.438C141.655+664.614+154.793+664.221+170.188+662.75C193.694+660.505+217.022+656.201+239+649.375C254.673+644.506+268.03+637.932+279.219+630.031C288.233+623.666+295.361+616.791+300.812+609.875C302.758+607.407+304.372+605.109+305.656+603C306.123+602.234+306.513+601.521+306.844+600.906C307.064+600.497+307.209+600.187+307.312+599.969L293.781+593.531ZM287.312+662.719C275.856+662.512+263.383+663.306+249.938+665.312C226.193+668.857+204.008+681.867+183.719+701.25C175.44+709.159+168.036+717.637+161.594+726.094C159.334+729.06+157.349+731.825+155.656+734.312C154.622+735.832+153.923+736.929+153.531+737.562L166.281+745.469C166.339+745.375+166.468+745.152+166.688+744.812C167.07+744.222+167.528+743.536+168.062+742.75C169.609+740.477+171.439+737.934+173.531+735.188C179.524+727.321+186.426+719.451+194.094+712.125C212.341+694.692+231.943+683.174+252.156+680.156C277.243+676.413+298.494+677.215+315.5+680.781C318.617+681.435+321.3+682.127+323.531+682.812C324.286+683.044+324.917+683.254+325.438+683.438C325.714+683.535+325.873+683.581+325.906+683.594L331.469+669.688C330.779+669.412+329.574+668.981+327.906+668.469C325.244+667.652+322.131+666.842+318.562+666.094C309.209+664.132+298.769+662.926+287.312+662.719Z" opacity="1" fill="#ff1562"/>
<path d="M583.236+411.779L814.565+411.779C826.944+411.779+836.452+408.491+843.091+401.913C849.729+395.336+853.049+385.797+853.049+373.296L853.049+230.331C853.049+217.83+849.729+208.291+843.091+201.714C836.452+195.136+826.944+191.848+814.565+191.848L583.236+191.848C570.857+191.848+561.349+195.136+554.71+201.714C548.072+208.291+544.752+217.83+544.752+230.331L544.752+373.296C544.752+385.797+548.072+395.336+554.71+401.913C561.349+408.491+570.857+411.779+583.236+411.779ZM580.846+349.642C577.578+349.642+575.944+348.008+575.944+344.74L575.944+234.069C575.944+230.107+576.842+227.277+578.64+225.582C580.437+223.887+583.215+223.039+586.974+223.039L810.888+223.039C814.606+223.039+817.364+223.887+819.161+225.582C820.959+227.277+821.857+230.107+821.857+234.069L821.857+344.74C821.857+348.008+820.203+349.642+816.894+349.642L580.846+349.642ZM654.81+438.068L743.052+438.068L738.518+407.98L659.345+407.98L654.81+438.068ZM698.931+399.156C695.254+399.156+692.109+397.848+689.494+395.234C686.88+392.619+685.572+389.474+685.572+385.797C685.572+382.161+686.88+379.046+689.494+376.452C692.109+373.858+695.254+372.56+698.931+372.56C702.567+372.56+705.682+373.858+708.276+376.452C710.87+379.046+712.167+382.161+712.167+385.797C712.167+389.474+710.87+392.619+708.276+395.234C705.682+397.848+702.567+399.156+698.931+399.156ZM644.393+458.229L753.347+458.229C757.146+458.229+760.353+456.881+762.968+454.185C765.583+451.488+766.89+448.363+766.89+444.809C766.89+441.214+765.583+438.058+762.968+435.341C760.353+432.624+757.146+431.266+753.347+431.266L644.393+431.266C640.634+431.266+637.448+432.624+634.833+435.341C632.218+438.058+630.911+441.214+630.911+444.809C630.911+448.363+632.218+451.488+634.833+454.185C637.448+456.881+640.634+458.229+644.393+458.229Z" opacity="1" fill="#ff1562"/>
</g>
</svg>
