<?xml version="1.0" encoding="UTF-8" standalone="no"?> <!-- Created with Vectornator for iOS (http://vectornator.io/) --><!DOCTYPE svg PUBLIC "-//W3C//DTD SVG 1.1//EN" "http://www.w3.org/Graphics/SVG/1.1/DTD/svg11.dtd">
<svg height="100%" style="fill-rule:nonzero;clip-rule:evenodd;stroke-linecap:round;stroke-linejoin:round;" xmlns:xlink="http://www.w3.org/1999/xlink" xmlns="http://www.w3.org/2000/svg" xml:space="preserve" width="100%" xmlns:vectornator="http://vectornator.io" version="1.1" viewBox="0 0 1024 1024">
<metadata>
<vectornator:setting key="DimensionsVisible" value="1"/>
<vectornator:setting key="PencilOnly" value="0"/>
<vectornator:setting key="SnapToPoints" value="0"/>
<vectornator:setting key="GuidesVisible" value="1"/>
<vectornator:setting key="CMYKEnabledKey" value="0"/>
<vectornator:setting key="RulersVisible" value="1"/>
<vectornator:setting key="SnapToEdges" value="0"/>
<vectornator:setting key="OutlineMode" value="0"/>
<vectornator:setting key="DisplayWhiteBackground" value="0"/>
<vectornator:setting key="doHistoryDisabled" value="0"/>
<vectornator:setting key="TimeLapseWatermarkDisabled" value="0"/>
<vectornator:setting key="SnapToGuides" value="1"/>
<vectornator:setting key="DynamicGuides" value="1"/>
<vectornator:setting key="SnapToGrid" value="0"/>
<vectornator:setting key="Units" value="Pixels"/>
<vectornator:setting key="IsolateActiveLayer" value="0"/>
</metadata>
<defs/>
<g id="Layer 1" vectornator:layerName="Layer 1">
<path d="M0.471311+512.236C0.471311+229.596+229.596+0.471337+512.236+0.471337C794.875+0.471337+1024+229.596+1024+512.236C1024+794.875+794.875+1024+512.236+1024C229.596+1024+0.471311+794.875+0.471311+512.236Z" opacity="1" fill="#000000"/>
<g opacity="1">
<path vectornator:shadowColor="#ffffff" vectornator:shadowOpacity="1" vectornator:shadowRadius="30.5233" d="M225.734+583.574C240.604+583.574+253.361+581.317+264.003+576.803C274.645+572.289+282.805+565.875+288.484+557.561C294.162+549.248+297.002+539.433+297.002+528.116L297.002+527.994C297.002+514.063+292.692+503.125+284.072+495.179C275.452+487.233+261.868+481.401+243.321+477.684L224.631+473.946C214.458+471.862+207.003+469.115+202.264+465.703C197.525+462.292+195.155+457.788+195.155+452.191L195.155+452.069C195.155+447.861+196.371+444.154+198.802+440.947C201.232+437.74+204.725+435.227+209.28+433.409C213.835+431.591+219.259+430.682+225.55+430.682C231.678+430.682+237.091+431.581+241.789+433.379C246.487+435.176+250.276+437.719+253.156+441.008C256.036+444.297+257.783+448.27+258.396+452.927L258.579+454.397L293.509+454.397L293.386+452.13C292.814+441.794+289.74+432.756+284.164+425.014C278.587+417.272+270.835+411.267+260.908+406.998C250.981+402.729+239.195+400.594+225.55+400.594C212.518+400.594+200.926+402.831+190.774+407.304C180.622+411.778+172.656+418.028+166.875+426.056C161.094+434.083+158.184+443.49+158.143+454.275L158.143+454.397C158.143+467.715+162.555+478.552+171.379+486.906C180.203+495.261+193.317+501.174+210.72+504.646L229.411+508.385C240.4+510.631+248.244+513.45+252.942+516.841C257.64+520.232+259.989+524.91+259.989+530.874L259.989+530.997C259.989+535.49+258.631+539.433+255.914+542.823C253.197+546.214+249.357+548.839+244.393+550.698C239.43+552.557+233.516+553.486+226.653+553.486C219.953+553.486+213.958+552.567+208.667+550.729C203.377+548.89+199.077+546.306+195.768+542.977C192.459+539.647+190.396+535.715+189.579+531.18L189.334+529.771L154.405+529.771L154.527+531.793C155.222+542.619+158.551+551.903+164.516+559.645C170.48+567.386+178.671+573.31+189.089+577.416C199.506+581.521+211.721+583.574+225.734+583.574Z" vectornator:shadowOffset="17.5888" fill="#ffffff" opacity="1" vectornator:shadowAngle="3.19651"/>
<path vectornator:shadowColor="#ffffff" vectornator:shadowOpacity="1" vectornator:shadowRadius="30.5233" d="M316.488+623.406L352.276+623.406L352.276+558.143L353.011+558.143C355.421+563.332+358.597+567.795+362.54+571.533C366.482+575.271+371.098+578.151+376.389+580.173C381.679+582.195+387.45+583.207+393.7+583.207C404.69+583.207+414.147+580.469+422.073+574.995C429.998+569.521+436.106+561.687+440.395+551.495C444.685+541.302+446.829+529.097+446.829+514.88L446.829+514.758C446.829+500.5+444.674+488.264+440.365+478.051C436.055+467.838+429.896+460.015+421.889+454.581C413.882+449.148+404.322+446.431+393.21+446.431C387+446.431+381.301+447.463+376.113+449.526C370.925+451.589+366.39+454.53+362.509+458.35C358.628+462.17+355.482+466.755+353.072+472.107L352.276+472.107L352.276+449.127L316.488+449.127L316.488+623.406ZM381.383+553.547C375.582+553.547+370.496+551.975+366.125+548.829C361.753+545.683+358.322+541.22+355.83+535.439C353.338+529.659+352.092+522.826+352.092+514.941L352.092+514.819C352.092+506.853+353.327+499.979+355.799+494.198C358.271+488.418+361.713+483.955+366.125+480.809C370.537+477.663+375.623+476.09+381.383+476.09C387.307+476.09+392.444+477.633+396.795+480.717C401.146+483.801+404.506+488.234+406.875+494.015C409.245+499.795+410.43+506.71+410.43+514.758L410.43+514.88C410.43+522.806+409.255+529.659+406.906+535.439C404.557+541.22+401.207+545.683+396.856+548.829C392.505+551.975+387.348+553.547+381.383+553.547Z" vectornator:shadowOffset="17.5888" fill="#ffffff" opacity="1" vectornator:shadowAngle="3.19651"/>
<path vectornator:shadowColor="#ffffff" vectornator:shadowOpacity="1" vectornator:shadowRadius="30.5233" d="M525.206+583.207C534.561+583.207+542.742+581.981+549.748+579.53C556.754+577.079+562.688+573.81+567.55+569.725C572.411+565.64+576.262+561.156+579.101+556.274C581.94+551.392+583.87+546.541+584.892+541.72L585.198+540.311L552.352+540.311L552.107+541.046C551.29+543.538+549.748+545.969+547.481+548.339C545.213+550.708+542.282+552.659+538.687+554.191C535.092+555.723+530.843+556.489+525.941+556.489C519.731+556.489+514.38+555.12+509.886+552.383C505.392+549.646+501.93+545.704+499.499+540.556C497.068+535.409+495.853+529.219+495.853+521.989L495.853+508.078C495.853+500.602+497.068+494.26+499.499+489.051C501.93+483.842+505.29+479.89+509.579+477.193C513.869+474.497+518.792+473.149+524.348+473.149C529.904+473.149+534.786+474.456+538.994+477.071C543.201+479.685+546.49+483.587+548.859+488.775C551.229+493.963+552.414+500.398+552.414+508.078L552.414+521.866L569.388+500.786L478.143+500.786L478.143+523.337L586.301+523.337L586.301+512.306C586.301+499.07+583.758+487.509+578.672+477.622C573.586+467.736+566.365+460.066+557.01+454.612C547.654+449.158+536.563+446.431+523.735+446.431C510.907+446.431+499.765+449.24+490.307+454.857C480.85+460.474+473.527+468.41+468.339+478.664C463.15+488.918+460.556+501.011+460.556+514.941L460.556+515.064C460.556+529.036+463.15+541.128+468.339+551.341C473.527+561.555+480.952+569.419+490.614+574.934C500.275+580.449+511.806+583.207+525.206+583.207Z" vectornator:shadowOffset="17.5888" fill="#ffffff" opacity="1" vectornator:shadowAngle="3.19651"/>
<path vectornator:shadowColor="#ffffff" vectornator:shadowOpacity="1" vectornator:shadowRadius="30.5233" d="M664.494+583.207C673.849+583.207+682.03+581.981+689.036+579.53C696.042+577.079+701.976+573.81+706.838+569.725C711.699+565.64+715.549+561.156+718.389+556.274C721.228+551.392+723.158+546.541+724.18+541.72L724.486+540.311L691.64+540.311L691.395+541.046C690.578+543.538+689.036+545.969+686.769+548.339C684.501+550.708+681.57+552.659+677.975+554.191C674.38+555.723+670.131+556.489+665.229+556.489C659.019+556.489+653.668+555.12+649.174+552.383C644.68+549.646+641.218+545.704+638.787+540.556C636.356+535.409+635.141+529.219+635.141+521.989L635.141+508.078C635.141+500.602+636.356+494.26+638.787+489.051C641.218+483.842+644.578+479.89+648.867+477.193C653.157+474.497+658.08+473.149+663.636+473.149C669.192+473.149+674.074+474.456+678.281+477.071C682.489+479.685+685.778+483.587+688.147+488.775C690.517+493.963+691.702+500.398+691.702+508.078L691.702+521.866L708.676+500.786L617.431+500.786L617.431+523.337L725.589+523.337L725.589+512.306C725.589+499.07+723.046+487.509+717.96+477.622C712.874+467.736+705.653+460.066+696.297+454.612C686.942+449.158+675.851+446.431+663.023+446.431C650.195+446.431+639.052+449.24+629.595+454.857C620.138+460.474+612.815+468.41+607.626+478.664C602.438+488.918+599.844+501.011+599.844+514.941L599.844+515.064C599.844+529.036+602.438+541.128+607.626+551.341C612.815+561.555+620.24+569.419+629.901+574.934C639.563+580.449+651.094+583.207+664.494+583.207Z" vectornator:shadowOffset="17.5888" fill="#ffffff" opacity="1" vectornator:shadowAngle="3.19651"/>
<path vectornator:shadowColor="#ffffff" vectornator:shadowOpacity="1" vectornator:shadowRadius="30.5233" d="M792.629+583.207C802.106+583.207+810.338+580.98+817.324+576.527C824.31+572.074+829.56+565.946+833.073+558.143L833.808+558.143L833.808+580.51L869.595+580.51L869.595+403.658L833.808+403.658L833.808+471.985L833.073+471.985C829.478+464.018+824.167+457.768+817.14+453.233C810.114+448.698+801.923+446.431+792.567+446.431C781.578+446.431+772.09+449.148+764.103+454.581C756.116+460.015+749.958+467.828+745.627+478.021C741.297+488.213+739.132+500.439+739.132+514.696L739.132+514.819C739.132+529.036+741.287+541.251+745.597+551.464C749.907+561.677+756.065+569.521+764.072+574.995C772.08+580.469+781.598+583.207+792.629+583.207ZM804.578+553.547C798.654+553.547+793.507+551.985+789.136+548.859C784.764+545.734+781.404+541.271+779.055+535.47C776.706+529.669+775.532+522.785+775.532+514.819L775.532+514.696C775.532+506.689+776.716+499.805+779.086+494.045C781.455+488.285+784.815+483.852+789.166+480.748C793.517+477.643+798.654+476.09+804.578+476.09C810.379+476.09+815.465+477.663+819.837+480.809C824.208+483.955+827.639+488.418+830.131+494.198C832.623+499.979+833.87+506.832+833.87+514.758L833.87+514.88C833.87+522.765+832.644+529.608+830.193+535.409C827.742+541.21+824.31+545.683+819.898+548.829C815.486+551.975+810.379+553.547+804.578+553.547Z" vectornator:shadowOffset="17.5888" fill="#ffffff" opacity="1" vectornator:shadowAngle="3.19651"/>
</g>
<path vectornator:shadowColor="#ffffff" vectornator:shadowOpacity="1" vectornator:shadowRadius="30.5233" d="M78+656.938C68+656.938+68+671.938+78+671.938L946+671.938C956+671.938+956+656.938+946+656.938L78+656.938Z" vectornator:shadowOffset="0" fill="#ffffff" opacity="1" vectornator:shadowAngle="3.19651"/>
</g>
</svg>
